# xmcd
#
# Track frame offsets:
#	150
#	7190
#	18792
#	32822
#	44632
#	55027
#	65850
#	73287
#	81627
#	91277
#	100025
#	112842
#	121225
#	136932
#	144897
#	159622
#	168872
#	177652
#
# Disc length: 2522 seconds
#
# Revision: 0
# Processed by: cddbd v1.4PL0 Copyright (c) Steve Scherf et al.
# Submitted via: EasyCDDAExtractor 5.0.5.1
#
DISCID=f909d812
DTITLE=Jim Reeves
DYEAR=1900
DGENRE=Country
TTITLE0=Have I Told You Latley That I Love You
TTITLE1=Just Call Me Lonsome
TTITLE2=How's The Worls Treating You
TTITLE3=If Heartache Is A Fashion
TTITLE4=Home
TTITLE5=Dear Hearts And Gentle People
TTITLE6=I'm Beginning To Forget You
TTITLE7=Poly Poly
TTITLE8=Wind Up Doll
TTITLE9=Sweet Eneving Breeze
TTITLE10=Your Old Love Letters
TTITLE11=Till The End Of The World
TTITLE12=Making Belive
TTITLE13=Oklahoma Hills
TTITLE14=Highway To Nowhere
TTITLE15=If You Were Mine
TTITLE16=Everywhere You Go
TTITLE17=I Love You
EXTD=
EXTT0=
EXTT1=
EXTT2=
EXTT3=
EXTT4=
EXTT5=
EXTT6=
EXTT7=
EXTT8=
EXTT9=
EXTT10=
EXTT11=
EXTT12=
EXTT13=
EXTT14=
EXTT15=
EXTT16=
EXTT17=
PLAYORDER=
